<svg width="1262" height="965" viewBox="0 0 1262 965" fill="none" xmlns="http://www.w3.org/2000/svg">
<path d="M621 224.5V232.5H639V224.5H621Z" stroke="black"/>
<path d="M636 128.5H621.5V181H636V128.5Z" stroke="black"/>
<path d="M611 895.5V910H641V895.5H611Z" stroke="black"/>
<path d="M142 384V405.5H161.5V384H142Z" stroke="black"/>
<path d="M1097 384V405.5H1116.5V384H1097Z" stroke="black"/>
<path d="M366.5 396.5H401.5" stroke="black"/>
<path d="M471.5 957.5H791.5" stroke="black"/>
<path d="M597.5 478.5V280.5" stroke="black"/>
<path d="M663.5 478.5V280.5" stroke="black"/>
<path d="M587 280.5V267C574.333 182 565 9.8 629 1" stroke="black"/>
<path d="M670.845 280.5V267C683.512 182 692.845 9.8 628.845 1" stroke="black"/>
<path d="M577.5 141.5H680" stroke="black"/>
<path d="M586.5 478.5C589.167 509 601.5 572.6 629.5 583" stroke="black"/>
<path d="M671.5 478.5C668.833 509 656.5 572.6 628.5 583" stroke="black"/>
<path d="M434 474L436.5 478.5V834" stroke="black"/>
<path d="M456 474L454 478.5V847.5" stroke="black"/>
<path d="M806 473L808.5 477.5V847" stroke="black"/>
<path d="M828 473L826 477.5V833" stroke="black"/>
<path d="M436.672 834C431.506 834.333 421.572 842.1 423.172 870.5C425.172 906 429.672 932 439.172 946" stroke="black"/>
<path d="M436.672 834C438.672 836.167 442.972 842.3 444.172 849.5C445.372 856.7 444.672 913.833 444.172 941.5C443.506 943 441.572 946 439.172 946" stroke="black"/>
<path d="M826 833C831.167 833.333 842.263 841.6 840.663 870C838.663 905.5 834.163 931.5 824.663 945.5" stroke="black"/>
<path d="M826.5 833C824.5 835.167 820.863 841.8 819.663 849C818.463 856.2 819.163 913.333 819.663 941C820.329 942.5 822.263 945.5 824.663 945.5" stroke="black"/>
<path d="M454.172 847C458.506 846.5 468.072 848.2 471.672 859" stroke="black"/>
<path d="M471.672 859L460.672 940.5C459.339 946.5 453.172 959.6 439.172 964" stroke="black"/>
<path d="M808.5 846.5C804.167 846 795.6 847.7 792 858.5" stroke="black"/>
<path d="M792 858L803 940.077C804.333 946.077 810.5 959.177 824.5 963.577" stroke="black"/>
<path d="M471.5 859V964" stroke="black"/>
<path d="M792 858.5V964" stroke="black"/>
<path d="M471.5 929H792" stroke="black"/>
<path d="M465 850H797" stroke="black"/>
<path d="M435 280.5V223C434.5 221.667 432.5 218.1 428.5 214.5" stroke="black"/>
<path d="M453.5 280.5V223C454 221.667 456 218.1 460 214.5" stroke="black"/>
<path d="M428.5 215V204L425 202V195.5H463V202L460 204V215" stroke="black"/>
<path d="M428 204H460" stroke="black"/>
<path d="M430 195V176L435 172H453L458 176V195.217" stroke="black"/>
<path d="M806 280.5V223C805.5 221.667 803.5 218.1 799.5 214.5" stroke="black"/>
<path d="M824.5 280.5V223C825 221.667 827 218.1 831 214.5" stroke="black"/>
<path d="M799.5 215V204L796 202V195.5H834V202L831 204V215" stroke="black"/>
<path d="M799 204H831" stroke="black"/>
<path d="M801 195V176L806 172H824L829 176V195.217" stroke="black"/>
<path d="M430 182.5C425.667 178.833 405.4 174.1 359 184.5" stroke="black"/>
<path d="M359 184.5C380.5 185 425.6 185.3 430 182.5" stroke="black"/>
<path d="M458 182.327C462.333 185.994 482.6 190.727 529 180.327" stroke="black"/>
<path d="M529 180.327C507.5 179.827 462.4 179.527 458 182.327" stroke="black"/>
<path d="M801 180.323C796.667 176.656 776.4 171.923 730 182.323" stroke="black"/>
<path d="M730 182.323C751.5 182.823 796.6 183.123 801 180.323" stroke="black"/>
<path d="M829 180.327C833.333 183.994 853.6 188.727 900 178.327" stroke="black"/>
<path d="M900 178.327C878.5 177.827 833.4 177.527 829 180.327" stroke="black"/>
<path d="M456 456H572.5" stroke="black"/>
<path d="M690 456H805.5" stroke="black"/>
<path d="M828 456H928" stroke="black"/>
<path d="M574.5 280.5L572.5 478.5H689.5V280.5" stroke="black"/>
<path d="M320.5 280V478" stroke="black"/>
<path d="M942 280V478" stroke="black"/>
<path d="M335 456H433.5" stroke="black"/>
<path d="M2 458.5V280.5H1261.5V459" stroke="black"/>
<path d="M1.5 408.5L306.5 430V477L335 479V431H434" stroke="black"/>
<path d="M1261.5 409L956.5 430.5V477.5L928 479.5V430.5H827.5" stroke="black"/>
<path d="M1 458L306.5 475" stroke="black"/>
<path d="M1261.5 458L956 475.5" stroke="black"/>
<path d="M434 431V474H456V431H573" stroke="black"/>
<path d="M828 429.5V473.5H806V430.5H689" stroke="black"/>
<path d="M439 946V964H472" stroke="black"/>
<path d="M824.5 945V964H791.5" stroke="black"/>
<path d="M366.5 389V424H401.5V389H366.5Z" stroke="black"/>
<path d="M495 396.5H530" stroke="black"/>
<path d="M495 389V424H530V389H495Z" stroke="black"/>
<path d="M728 396.5H763" stroke="black"/>
<path d="M728 389V424H763V389H728Z" stroke="black"/>
<path d="M857 396.5H892" stroke="black"/>
<path d="M857 389V424H892V389H857Z" stroke="black"/>
<path d="M421.5 898V879H430V898H421.5Z" stroke="black"/>
<path d="M836 898V879H844.5V898H836Z" stroke="black"/>
</svg>
